<svg width="21" height="20" viewBox="0 0 21 20" fill="none" xmlns="http://www.w3.org/2000/svg">
<path fill-rule="evenodd" clip-rule="evenodd" d="M10.1211 0.378902C10.7403 -0.171475 11.6884 -0.115704 12.2388 0.50347L19.6215 8.80906C19.6901 8.88622 19.7493 8.9685 19.7992 9.05448C20.2407 9.61439 20.2315 10.427 19.7412 10.9786L12.2388 19.4198C11.6885 20.039 10.7404 20.0949 10.1212 19.5445C9.50197 18.9942 9.44614 18.0461 9.99648 17.4269L15.3687 11.3824H1.5C0.671573 11.3824 0 10.7108 0 9.88236C0 9.05393 0.671573 8.38236 1.5 8.38236H15.2284L9.99657 2.49656C9.44619 1.87739 9.50196 0.929279 10.1211 0.378902Z" fill="#D9D9D9"/>
</svg>
