<svg width="23" height="23" viewBox="0 0 23 23" fill="none" xmlns="http://www.w3.org/2000/svg">
<path d="M22 11.5C22 17.299 17.299 22 11.5 22C5.70101 22 1 17.299 1 11.5C1 5.70101 5.70101 1 11.5 1C17.299 1 22 5.70101 22 11.5Z" fill="#060F32" stroke="#26387E" stroke-width="2"/>
<path d="M1.79656 16.2118C1.75694 15.5729 1.75694 15.4534 1.75694 14.6944C1.75694 13.9354 2.116 14.0556 2.47569 13.6965C2.83539 13.3374 2.75553 13.2972 3.35417 12.9036C3.95281 12.5101 3.634 12.0597 3.59375 11.8201C3.5535 11.5805 3.19444 11.7798 2.59517 11.8591C1.99589 11.9383 2.1965 11.6597 1.83681 11.5C1.47711 11.3403 1.31803 11.1007 1.07781 10.3819C0.837583 9.66319 0.797972 9.46322 0.878472 8.86458C0.958972 8.26594 1.23817 8.82433 1.27778 9.46322C1.31739 10.1021 1.87706 9.86253 1.87706 10.2618C1.87706 10.6611 2.67567 11.1001 2.875 11.2202C3.07433 11.3403 3.634 10.6209 3.83333 10.4216C4.03267 10.2222 4.27289 9.94239 4.35211 9.78267C4.43133 9.62294 5.43056 9.50283 5.62989 9.50283C5.82922 9.50283 6.30839 10.1021 6.30839 10.3813C6.30839 10.6605 6.54797 11.4195 6.74794 11.8584C6.94792 12.2973 7.38683 12.3772 7.78614 12.6966C8.18544 13.0161 8.38542 12.7362 8.38542 12.7362C8.38542 12.7362 8.22569 12.0577 8.22569 11.4981C8.22569 10.9384 8.70486 10.4599 8.70486 10.4599C8.70486 10.4599 9.46386 11.0189 9.50347 11.1786C9.54308 11.3384 10.1424 11.8974 10.182 12.1766C10.2216 12.4558 10.541 12.8155 11.1294 12.8953C11.7179 12.9752 11.3 12.2168 11.4994 11.6974C11.6987 11.178 11.9785 11.0981 12.3376 11.0189C12.6966 10.9397 12.9765 10.6196 13.2161 10.3002C13.4556 9.98072 13.8946 9.54117 13.8549 9.18211C13.8153 8.82306 13.6952 8.58283 13.5355 8.14392C13.3758 7.705 14.0147 7.54464 14.2945 7.02586C14.5743 6.50708 14.2945 7.02586 14.9334 6.86614C15.5723 6.70642 15.2924 6.70642 15.4126 6.46683C15.5327 6.22725 15.6119 5.98767 15.4924 5.54811C15.3729 5.10856 14.9334 5.54811 14.4945 5.54811C14.0556 5.54811 14.6548 4.95139 14.6944 4.47222C14.7341 3.99306 15.2937 4.11317 15.6924 4.07292C16.0911 4.03267 16.2112 4.59169 16.3313 4.71181C16.4514 4.83192 17.6889 3.91319 18.0084 3.47364C18.3278 3.03408 17.7292 3.15483 17.8889 2.96956C18.0486 2.78428 16.9306 2.74658 16.491 2.67567C16.0514 2.60475 14.934 2.55556 14.4951 2.28467C14.0562 2.01378 12.3791 2.21822 11.9396 2.43608C11.5 2.65394 11.2208 2.41756 11.0208 2.11664C10.8209 1.81572 9.98264 1.9665 9.74306 1.79719C9.50347 1.62789 9.26389 2.07639 8.94444 2.1965C8.625 2.31661 8.50489 2.35622 8.10622 2.11664C7.70756 1.87706 8.22569 1.59722 7.66667 1.39789C7.29228 1.26436 6.84378 1.34231 6.14611 1.32697C2.49294 3.25322 0 7.08336 0 11.5C0 13.685 0.620361 15.7199 1.67836 17.4589C1.87514 17.128 1.82594 16.6814 1.79656 16.2118ZM11.0604 15.4534C11.3403 15.4931 12.1389 15.4534 11.5 14.9347C10.8611 14.4159 10.5021 14.8146 10.5813 14.2159C10.6605 13.6173 10.182 13.6166 10.182 13.6166C10.182 14.0562 9.86253 14.5354 10.182 14.9743C10.5014 15.4132 10.7812 15.4132 11.0604 15.4534Z" fill="#26387E"/>
<path d="M15.1341 8.78472C14.4952 8.26594 14.9744 8.42567 15.0542 7.82639C15.1341 7.22711 14.6549 7.22711 14.6549 7.22711C14.6549 7.66667 14.3355 8.14583 14.6549 8.58475C14.9744 9.02367 14.016 9.38336 14.2959 9.42297C14.5757 9.46258 15.773 9.3035 15.1341 8.78472ZM12.6552 15.0139C13.0513 15.4534 12.898 15.0139 13.4167 14.8146C13.9355 14.6152 12.9772 14.1757 12.6577 13.9361C12.3383 13.6965 12.0208 13.6876 11.7416 14.2159C11.4247 14.8146 12.2591 14.5743 12.6552 15.0139ZM17.3299 15.8125C17.1306 15.5729 16.691 15.4534 16.2119 15.4643C15.7327 15.4758 15.7723 14.934 15.2932 14.9736C14.814 15.0133 14.4715 14.6516 14.255 14.5398C13.7841 14.2971 14.0952 14.8535 14.255 15.4637C14.4147 16.0738 15.014 15.6119 15.5724 15.9313C16.1307 16.2508 16.1716 15.8112 16.6904 15.9709C17.2092 16.1307 17.4092 16.4897 17.9069 16.4501C18.4045 16.4105 17.5299 16.0521 17.3299 15.8125ZM16.2917 17.5694C16.0924 17.1701 15.5085 16.8104 15.2689 16.6079C15.0293 16.4054 14.6543 16.337 14.3348 16.4546C14.0154 16.5721 13.816 16.4546 13.6563 16.1383C13.4966 15.8221 13.2168 15.9326 12.9778 15.9722C12.7389 16.0118 11.7799 16.4118 11.2209 16.691C10.6619 16.9702 10.4076 17.2129 10.0409 17.5694C9.46713 18.1278 9.78338 17.7688 10.0409 18.1285C10.2983 18.4875 9.75846 19.6056 9.71885 20.2445C9.67924 20.8834 10.7424 20.0451 11.1417 19.9646C11.541 19.8841 11.4234 19.6452 11.7429 19.4056C12.0623 19.166 12.2699 19.1098 12.6207 19.4292C12.9714 19.7487 13.4308 20.0445 13.4308 20.4036C13.4308 20.7626 14.6952 21.3619 15.1743 21.1223C15.6535 20.8827 15.9333 20.4036 16.3722 20.0043C16.8112 19.6049 16.6521 18.8466 16.7715 18.3674C16.891 17.8883 16.4911 17.9688 16.2917 17.5694Z" fill="#26387E"/>
</svg>
