<svg width="26" height="25" viewBox="0 0 26 25" fill="none" xmlns="http://www.w3.org/2000/svg">
<path fill-rule="evenodd" clip-rule="evenodd" d="M4.66401 5.70961C6.49576 3.61686 9.10287 2.21996 12.037 1.96721V5.77778C12.037 6.30961 12.4682 6.74074 13 6.74074C13.5318 6.74074 13.963 6.30961 13.963 5.77778V1.96721C16.8971 2.21996 19.5042 3.61686 21.336 5.7096L18.9394 8.10612C18.5634 8.48218 18.5634 9.0919 18.9394 9.46796C19.3155 9.84402 19.9252 9.84402 20.3013 9.46796L22.4862 7.28304C23.4941 8.95188 24.0741 10.9082 24.0741 13C24.0741 13.913 23.9637 14.7998 23.7557 15.6482H20.2222C19.6904 15.6482 19.2593 16.0793 19.2593 16.6111C19.2593 17.1429 19.6904 17.5741 20.2222 17.5741H23.0885C22.8198 18.1658 22.5005 18.7297 22.1361 19.2604L17.4725 19.2593C17.1077 17.5566 15.7953 16.2055 14.114 15.7848L15.1536 9.5472C15.241 9.02261 14.8866 8.52647 14.362 8.43903C13.8374 8.3516 13.3413 8.70599 13.2539 9.23058L12.1718 15.7229C10.3543 16.0553 8.91207 17.4618 8.5272 19.2605H3.86396C3.49955 18.7298 3.18022 18.1658 2.91146 17.5741H5.77777C6.3096 17.5741 6.74073 17.1429 6.74073 16.6111C6.74073 16.0793 6.3096 15.6482 5.77777 15.6482H2.24434C2.03626 14.7998 1.92593 13.913 1.92593 13C1.92593 10.9082 2.50589 8.95189 3.51379 7.28305L5.6987 9.46796C6.07476 9.84402 6.68447 9.84402 7.06053 9.46796C7.43659 9.0919 7.43659 8.48218 7.06053 8.10612L4.66401 5.70961ZM8.52771 21.1864H3.37037C3.06756 21.1864 2.78238 21.0439 2.60049 20.8018C0.967853 18.6288 0 15.926 0 13C0 5.8203 5.8203 0 13 0C20.1796 0 26 5.82029 26 13C26 15.926 25.0321 18.6288 23.3995 20.8018C23.2176 21.044 22.9323 21.1865 22.6294 21.1864L17.4725 21.1852C17.0303 23.249 15.1959 24.7963 13 24.7963C10.8045 24.7963 8.97037 23.2496 8.52771 21.1864ZM12.9862 17.5741C11.53 17.5815 10.3518 18.7642 10.3518 20.2222C10.3518 21.6848 11.5374 22.8704 13 22.8704C14.4626 22.8704 15.6481 21.6848 15.6481 20.2222C15.6481 18.7648 14.4709 17.5825 13.0155 17.5741C13.0103 17.5741 13.0052 17.5741 13 17.5741C12.9954 17.5741 12.9908 17.5741 12.9862 17.5741Z" fill="white"/>
</svg>
