<svg width="25" height="25" viewBox="0 0 25 25" fill="none" xmlns="http://www.w3.org/2000/svg">
<path fill-rule="evenodd" clip-rule="evenodd" d="M11.7187 0.78125C11.7187 1.2125 12.0687 1.5625 12.4999 1.5625C15.4214 1.5625 18.1679 2.70039 20.2335 4.76641C22.2996 6.83203 23.4375 9.57852 23.4375 12.5C23.4375 15.3832 22.3273 18.0949 20.3125 20.1512V17.9688C20.3125 17.5375 19.9625 17.1875 19.5312 17.1875C19.1 17.1875 18.75 17.5375 18.75 17.9688V22.6563H23.4375C23.8687 22.6563 24.2187 22.3063 24.2187 21.875C24.2187 21.4438 23.8687 21.0938 23.4375 21.0938H21.5718C23.7832 18.7625 25 15.7254 25 12.5C25 9.16133 23.6996 6.02227 21.3382 3.66133C18.9777 1.30039 15.8386 0 12.4999 0C12.0687 0 11.7187 0.35 11.7187 0.78125ZM12.5 5C8.35776 5 5 8.35776 5 12.5C5 16.6422 8.35776 20 12.5 20C16.6422 20 20 16.6422 20 12.5C20 8.35776 16.6422 5 12.5 5ZM14.9886 15.8145C14.8707 15.9319 14.747 16.0549 14.6466 16.1556C14.5561 16.2464 14.4923 16.3583 14.46 16.4795C14.4482 16.5237 14.437 16.5679 14.4258 16.6122L14.4258 16.6122C14.3936 16.7395 14.3615 16.8665 14.3157 16.9897L13.7898 18.4066C13.3737 18.4973 12.943 18.5484 12.5 18.5484V17.7204C12.5511 17.3387 12.269 16.6238 11.8156 16.1705C11.6342 15.989 11.5323 15.7428 11.5323 15.4861V14.518C11.5323 14.166 11.3426 13.8424 11.0345 13.6722C10.5999 13.4318 9.98175 13.0958 9.55837 12.8826C9.21119 12.7078 8.89002 12.4852 8.60121 12.2248L8.57702 12.203C8.37048 12.0166 8.18711 11.806 8.03085 11.5758C7.74718 11.1594 7.28508 10.4744 6.98478 10.0292C7.60383 8.65323 8.71946 7.54819 10.1057 6.94788L10.8319 7.31109C11.1536 7.47198 11.5323 7.23821 11.5323 6.87833V6.53659C11.7739 6.49758 12.0198 6.47278 12.2699 6.46341L13.1257 7.31925C13.3147 7.50827 13.3147 7.81462 13.1257 8.00363L12.9839 8.14516L12.6712 8.45786C12.5768 8.55222 12.5768 8.70554 12.6712 8.7999L12.813 8.94173C12.9074 9.03609 12.9074 9.18941 12.813 9.28377L12.5711 9.52571C12.5256 9.57104 12.4641 9.5965 12.3999 9.59647H12.128C12.0651 9.59647 12.0046 9.62097 11.9593 9.66512L11.6593 9.95696C11.6225 9.99277 11.5981 10.0393 11.5895 10.0899C11.5809 10.1405 11.5886 10.1926 11.6115 10.2385L12.083 11.1818C12.1634 11.3426 12.0464 11.532 11.8667 11.532H11.6962C11.6378 11.532 11.5816 11.5108 11.5377 11.4727L11.2571 11.2289C11.1935 11.1738 11.1168 11.1362 11.0343 11.1198C10.9519 11.1033 10.8666 11.1087 10.7868 11.1352L9.84415 11.4494C9.77219 11.4734 9.70959 11.5194 9.66525 11.581C9.6209 11.6425 9.59705 11.7165 9.59708 11.7923C9.59708 11.9293 9.6745 12.0542 9.79698 12.1156L10.1321 12.2832C10.4166 12.4256 10.7305 12.4997 11.0487 12.4997C11.2302 12.4997 11.427 12.7684 11.6154 13.0256C11.7572 13.2192 11.8942 13.4063 12.0164 13.4674H14.0351C14.2918 13.4674 14.5377 13.5694 14.7195 13.7508L15.1335 14.1648C15.3064 14.3378 15.4036 14.5725 15.4035 14.8171C15.4035 15.0025 15.3668 15.1861 15.2956 15.3572C15.2244 15.5284 15.1201 15.6838 14.9886 15.8145ZM17.6109 13.0519C17.4358 13.0081 17.2831 12.9007 17.183 12.7504L16.6392 11.9348C16.5597 11.8156 16.5172 11.6755 16.5172 11.5323C16.5172 11.389 16.5597 11.2489 16.6392 11.1297L17.2317 10.2412C17.3018 10.1363 17.398 10.051 17.5111 9.99476L17.9036 9.79849C18.3125 10.6126 18.5484 11.5283 18.5484 12.5C18.5484 12.7622 18.526 13.019 18.4933 13.2724L17.6109 13.0519ZM12.5 25C9.16133 25 6.02227 23.6996 3.66172 21.3386C1.30039 18.9777 0 15.8386 0 12.5C0 9.27458 1.2168 6.23747 3.42813 3.90622H1.5625C1.13125 3.90622 0.78125 3.55622 0.78125 3.12497C0.78125 2.69372 1.13125 2.34372 1.5625 2.34372H6.25V7.03122C6.25 7.46247 5.9 7.81247 5.46875 7.81247C5.0375 7.81247 4.6875 7.46247 4.6875 7.03122V4.8488C2.67266 6.90505 1.5625 9.61677 1.5625 12.5C1.5625 15.4215 2.70039 18.1679 4.76641 20.2336C6.83203 22.2996 9.57852 23.4375 12.5 23.4375C12.9313 23.4375 13.2813 23.7875 13.2813 24.2187C13.2813 24.65 12.9313 25 12.5 25Z" fill="white"/>
</svg>
