<svg width="26" height="26" viewBox="0 0 26 26" fill="none" xmlns="http://www.w3.org/2000/svg">
<path fill-rule="evenodd" clip-rule="evenodd" d="M13 26C20.1797 26 26 20.1797 26 13C26 5.8203 20.1797 0 13 0C11.3929 0 9.85392 0.291619 8.43308 0.824826C7.75898 0.307494 6.9154 0 6 0C3.79086 0 2 1.79086 2 4C2 4.56115 2.11555 5.09532 2.32416 5.58C0.859035 7.68407 0 10.2417 0 13C0 20.1797 5.8203 26 13 26ZM4.51012 7.71332C3.55303 9.24707 3 11.0589 3 13C3 18.5228 7.47715 23 13 23C18.5228 23 23 18.5228 23 13C23 7.47715 18.5228 3 13 3C11.9419 3 10.9222 3.16433 9.96504 3.46885C9.9881 3.64263 10 3.81992 10 4C10 6.20914 8.20914 8 6 8C5.47341 8 4.97059 7.89824 4.51012 7.71332ZM20 13C20 16.866 16.866 20 13 20C9.13401 20 6 16.866 6 13C6 9.13401 9.13401 6 13 6C16.866 6 20 9.13401 20 13Z" fill="white"/>
</svg>
