<svg width="15" height="24" viewBox="0 0 15 24" fill="none" xmlns="http://www.w3.org/2000/svg">
<path fill-rule="evenodd" clip-rule="evenodd" d="M13.2223 2H11.7778V3.66668H13.2223C13.7746 3.66668 14.2223 4.11439 14.2223 4.66668C14.2223 5.21896 13.7746 5.66668 13.2223 5.66668H11.7778V7.33337H13.2223C13.7746 7.33337 14.2223 7.78109 14.2223 8.33337C14.2223 8.88566 13.7746 9.33337 13.2223 9.33337H11.7778V11.5231C13.2741 12.8255 14.2223 14.7466 14.2223 16.8889C14.2223 20.8162 11.0385 24 7.11115 24C3.18377 24 0 20.8162 0 16.8889C0 14.7466 0.948166 12.8255 2.44446 11.5231V1C2.44446 0.447715 2.89217 0 3.44446 0H10.7778H13.2223C13.7746 0 14.2223 0.447715 14.2223 1C14.2223 1.55228 13.7746 2 13.2223 2ZM9.77783 2V4.66471L9.77783 4.66668L9.77783 4.66865V8.3314L9.77783 8.33337L9.77783 8.33535V11.9878C9.77766 12.0038 9.77787 12.0197 9.77845 12.0356C9.78975 12.3589 9.9545 12.6432 10.2021 12.8178C11.4316 13.753 12.2223 15.2285 12.2223 16.8889C12.2223 19.7116 9.93392 22 7.11115 22C4.28835 22 2 19.7116 2 16.8889C2 15.2285 2.79067 13.753 4.02017 12.8178C4.26778 12.6432 4.43254 12.3589 4.44384 12.0356C4.44442 12.0197 4.44463 12.0038 4.44446 11.9878V2H9.77783ZM8.11121 10.7778C8.11121 10.2256 7.66349 9.77784 7.11121 9.77784C6.55892 9.77784 6.11121 10.2256 6.11121 10.7778V13.5919C4.69657 14.0204 3.66675 15.3344 3.66675 16.889C3.66675 18.7914 5.20889 20.3334 7.11121 20.3334C9.01357 20.3334 10.5557 18.7913 10.5557 16.889C10.5557 15.3344 9.52587 14.0204 8.11121 13.5919V10.7778ZM5.66675 16.889C5.66675 16.0912 6.31344 15.4445 7.11121 15.4445C7.909 15.4445 8.55567 16.0912 8.55567 16.889C8.55567 17.6868 7.909 18.3334 7.11121 18.3334C6.31344 18.3334 5.66675 17.6868 5.66675 16.889Z" fill="white"/>
</svg>
