<svg width="32" height="32" viewBox="0 0 32 32" fill="none" xmlns="http://www.w3.org/2000/svg">
<path fill-rule="evenodd" clip-rule="evenodd" d="M31.7382 16.0118C31.7375 16.0574 31.7238 16.1019 31.6987 16.14C30.0058 18.8406 23.4652 21.7552 18.2224 21.7419C17.2901 21.7446 16.3594 21.6661 15.4407 21.5072C14.7061 22.3805 13.8407 23.123 12.852 23.5113C10.0593 24.604 7.25871 22.9346 6.14711 22.1303C6.08573 22.0867 6.0353 22.0294 5.99977 21.963C5.96424 21.8966 5.94458 21.8228 5.94233 21.7475C5.94008 21.6723 5.9553 21.5975 5.98681 21.529C6.01831 21.4606 6.06523 21.4004 6.12389 21.3532L9.58193 18.5798C9.35037 18.3435 9.13093 18.0957 8.92448 17.8373C8.77808 17.6591 8.69846 17.4354 8.69938 17.2048L8.69652 14.7916C8.69535 14.5609 8.77499 14.3371 8.92163 14.1591C9.12929 13.8993 9.35003 13.6501 9.58301 13.4127L6.11925 10.6371C6.06049 10.5899 6.01348 10.5298 5.98192 10.4613C5.95036 10.3929 5.93511 10.3181 5.93736 10.2428C5.93961 10.1674 5.9593 10.0937 5.9949 10.0272C6.03049 9.96082 6.081 9.90356 6.14247 9.85996C7.25978 9.0578 10.0564 7.39238 12.8542 8.48003C13.8429 8.86843 14.7104 9.61664 15.4468 10.496C16.3641 10.3384 17.2934 10.261 18.2242 10.2648C23.4627 10.2659 30.1215 13.278 31.7026 15.8824C31.7265 15.9213 31.7389 15.9662 31.7382 16.0118ZM19.1282 14.6529C18.8618 15.0519 18.7196 15.5209 18.7198 16.0007C18.7196 16.3192 18.7821 16.6346 18.9039 16.9289C19.0257 17.2231 19.2042 17.4905 19.4294 17.7157C19.6546 17.9409 19.922 18.1195 20.2163 18.2413C20.5106 18.3631 20.826 18.4256 21.1445 18.4254C21.6243 18.4256 22.0933 18.2834 22.4923 18.017C22.8913 17.7505 23.2023 17.3717 23.386 16.9285C23.5697 16.4852 23.6178 15.9975 23.5242 15.5269C23.4306 15.0563 23.1996 14.6241 22.8604 14.2848C22.5211 13.9456 22.0888 13.7145 21.6183 13.621C21.1477 13.5274 20.6599 13.5755 20.2167 13.7592C19.7735 13.9429 19.3947 14.2539 19.1282 14.6529ZM6.51851 17.4457C6.96193 17.7583 7.35248 17.9959 7.74444 17.9956C7.9549 17.9909 8.0478 18.2618 7.88522 18.3979C7.35246 18.8164 6.69432 19.0433 6.01685 19.0421C4.33607 19.0428 1.13528 16.0007 1.13528 16.0007C1.13528 16.0007 4.33428 12.9603 6.01506 12.9596C6.69176 12.9598 7.34895 13.1863 7.88201 13.6031C7.91896 13.6312 7.94612 13.6702 7.95963 13.7146C7.97315 13.759 7.97233 13.8066 7.9573 13.8505C7.94227 13.8944 7.91379 13.9324 7.8759 13.9592C7.83801 13.986 7.79264 14.0002 7.74623 13.9998C7.53185 13.9998 6.90334 14.2838 6.51959 14.5511C5.5084 15.2571 5.52448 16.741 6.51851 17.4457Z" fill="#26387E"/>
</svg>
