<svg width="25" height="26" viewBox="0 0 25 26" fill="none" xmlns="http://www.w3.org/2000/svg">
<path fill-rule="evenodd" clip-rule="evenodd" d="M15.9893 15.7683C17.1897 16.212 18.4536 16.4463 19.7351 16.5105L18.8311 20.7894L17.0754 22.3264C16.7561 22.6057 16.2582 22.5006 16.0793 22.116L15.0952 20.0005L15.9893 15.7683ZM23.9213 14.0184C24.0393 14.3596 23.8529 14.7439 23.5053 14.8417C19.7391 15.9031 15.6663 14.972 12.7355 12.3398C11.6886 11.3995 10.8467 10.2841 10.2195 9.0665L4.86568 10.8135L2.65706 10.0615C2.25544 9.92478 2.09767 9.44096 2.34123 9.09359L3.68151 7.18347L9.0716 5.42467C8.91494 4.3319 8.89585 3.21513 9.06339 2.10187C9.11691 1.74527 9.47448 1.51261 9.82741 1.58689L11.0756 1.84885C11.4088 1.91883 11.6135 2.23736 11.5665 2.57473C11.4712 3.25942 11.4639 3.94671 11.5267 4.62376L16.6917 2.93815C16.8338 2.33713 17.1066 1.75895 17.5486 1.26688C18.9576 -0.301938 21.3715 -0.43148 22.9404 0.977533C24.5092 2.38655 24.6387 4.80049 23.2297 6.3693C22.7878 6.86137 22.2421 7.19453 21.6594 7.39985L20.8078 11.4306C19.51 11.5036 18.2256 11.2476 17.0634 10.6827L17.9036 6.70638C17.8937 6.69802 17.8831 6.69101 17.8725 6.68399C17.8605 6.67611 17.8486 6.66822 17.8376 6.65838C17.8267 6.64859 17.8177 6.63768 17.8087 6.62675C17.8006 6.61691 17.7924 6.60705 17.7829 6.59796L12.6889 8.26032C13.1518 9.06516 13.7282 9.81012 14.4363 10.4461C16.6925 12.4724 19.8187 13.2033 22.7234 12.416C23.0518 12.3272 23.3934 12.4902 23.5045 12.8118L23.9213 14.0184ZM21.336 4.6685C21.8056 4.14566 21.7624 3.34082 21.2396 2.87124C20.7167 2.40166 19.9119 2.44485 19.4423 2.96769C18.9727 3.49053 19.0159 4.29536 19.5387 4.76495C20.0616 5.23453 20.8664 5.19134 21.336 4.6685ZM15.0172 24.0719C7.7003 24.1859 1.67633 18.3469 1.56226 11.03L1.49991 7.03049C1.49345 6.61632 1.15247 6.28581 0.738311 6.29227C0.324148 6.29872 -0.00636356 6.6397 9.30085e-05 7.05387L0.0624432 11.0534C0.189423 19.1986 6.89535 25.6987 15.0406 25.5717L19.0401 25.5093C19.4542 25.5029 19.7848 25.1619 19.7783 24.7477C19.7718 24.3336 19.4309 24.003 19.0167 24.0095L15.0172 24.0719Z" fill="white"/>
</svg>
